<?xml version="1.0" encoding="UTF-8" standalone="no"?>
<!DOCTYPE svg PUBLIC "-//W3C//DTD SVG 1.1//EN"
 "http://www.w3.org/Graphics/SVG/1.1/DTD/svg11.dtd">
<!-- Generated by graphviz version 12.2.1 (20241206.2353)
 -->
<!-- Pages: 1 -->
<svg width="424pt" height="476pt"
 viewBox="0.00 0.00 424.05 476.00" xmlns="http://www.w3.org/2000/svg" xmlns:xlink="http://www.w3.org/1999/xlink">
<g id="graph0" class="graph" transform="scale(1 1) rotate(0) translate(4 472)">
<polygon fill="white" stroke="none" points="-4,4 -4,-472 420.05,-472 420.05,4 -4,4"/>
<!-- valentin_is_better_at_infra -->
<g id="node1" class="node">
<title>valentin_is_better_at_infra</title>
<g id="a_node1"><a xlink:title="@valentinboyanov has a better understanding of his level in infrastructure and is more confident in what he knows and can do.">
<ellipse fill="none" stroke="black" cx="147.68" cy="-18" rx="110.21" ry="18"/>
<text text-anchor="middle" x="147.68" y="-12.95" font-family="Times,serif" font-size="14.00">valentin_is_better_at_infra</text>
</a>
</g>
</g>
<!-- observability_solution_ready -->
<g id="node2" class="node">
<title>observability_solution_ready</title>
<g id="a_node2"><a xlink:title="The observatility solution is ready to be used by a small product team in production environment.">
<ellipse fill="none" stroke="black" cx="147.68" cy="-90" rx="118.4" ry="18"/>
<text text-anchor="middle" x="147.68" y="-84.95" font-family="Times,serif" font-size="14.00">observability_solution_ready</text>
</a>
</g>
</g>
<!-- observability_solution_ready&#45;&gt;valentin_is_better_at_infra -->
<g id="edge1" class="edge">
<title>observability_solution_ready&#45;&gt;valentin_is_better_at_infra</title>
<path fill="none" stroke="black" d="M147.68,-71.7C147.68,-64.41 147.68,-55.73 147.68,-47.54"/>
<polygon fill="black" stroke="black" points="151.18,-47.62 147.68,-37.62 144.18,-47.62 151.18,-47.62"/>
</g>
<!-- ivan_approved -->
<g id="node3" class="node">
<title>ivan_approved</title>
<g id="a_node3"><a xlink:title="@igarridot has reviewed and confirmed that the solution is suitable for the purpose of this learning exercise.">
<ellipse fill="none" stroke="black" cx="65.68" cy="-162" rx="65.68" ry="18"/>
<text text-anchor="middle" x="65.68" y="-156.95" font-family="Times,serif" font-size="14.00">ivan_approved</text>
</a>
</g>
</g>
<!-- ivan_approved&#45;&gt;observability_solution_ready -->
<g id="edge2" class="edge">
<title>ivan_approved&#45;&gt;observability_solution_ready</title>
<path fill="none" stroke="black" d="M85.11,-144.41C95.2,-135.8 107.73,-125.1 118.92,-115.55"/>
<polygon fill="black" stroke="black" points="121.05,-118.34 126.38,-109.18 116.5,-113.01 121.05,-118.34"/>
</g>
<!-- production_deploy -->
<g id="node4" class="node">
<title>production_deploy</title>
<g id="a_node4"><a xlink:title="The solution can be deployed on production environment.">
<ellipse fill="none" stroke="black" cx="229.68" cy="-162" rx="80.52" ry="18"/>
<text text-anchor="middle" x="229.68" y="-156.95" font-family="Times,serif" font-size="14.00">production_deploy</text>
</a>
</g>
</g>
<!-- production_deploy&#45;&gt;observability_solution_ready -->
<g id="edge3" class="edge">
<title>production_deploy&#45;&gt;observability_solution_ready</title>
<path fill="none" stroke="black" d="M210.25,-144.41C200.16,-135.8 187.63,-125.1 176.45,-115.55"/>
<polygon fill="black" stroke="black" points="178.86,-113.01 168.98,-109.18 174.32,-118.34 178.86,-113.01"/>
</g>
<!-- min_working_solution -->
<g id="node5" class="node">
<title>min_working_solution</title>
<g id="a_node5"><a xlink:title="A minimal working solution using the selected tools can be run locally.">
<ellipse fill="none" stroke="black" cx="229.68" cy="-234" rx="95.37" ry="18"/>
<text text-anchor="middle" x="229.68" y="-228.95" font-family="Times,serif" font-size="14.00">min_working_solution</text>
</a>
</g>
</g>
<!-- min_working_solution&#45;&gt;production_deploy -->
<g id="edge4" class="edge">
<title>min_working_solution&#45;&gt;production_deploy</title>
<path fill="none" stroke="black" d="M229.68,-215.7C229.68,-208.41 229.68,-199.73 229.68,-191.54"/>
<polygon fill="black" stroke="black" points="233.18,-191.62 229.68,-181.62 226.18,-191.62 233.18,-191.62"/>
</g>
<!-- research_done -->
<g id="node6" class="node">
<title>research_done</title>
<g id="a_node6"><a xlink:title="Research on the state of the art in observability is complete.">
<ellipse fill="none" stroke="black" cx="229.68" cy="-306" rx="64.15" ry="18"/>
<text text-anchor="middle" x="229.68" y="-300.95" font-family="Times,serif" font-size="14.00">research_done</text>
</a>
</g>
</g>
<!-- research_done&#45;&gt;min_working_solution -->
<g id="edge5" class="edge">
<title>research_done&#45;&gt;min_working_solution</title>
<path fill="none" stroke="black" d="M229.68,-287.7C229.68,-280.41 229.68,-271.73 229.68,-263.54"/>
<polygon fill="black" stroke="black" points="233.18,-263.62 229.68,-253.62 226.18,-263.62 233.18,-263.62"/>
</g>
<!-- basic_concepts_learned -->
<g id="node7" class="node">
<title>basic_concepts_learned</title>
<g id="a_node7"><a xlink:title="@valentyinboyanov has learned the fundamental ideas: monitoring (metrics, logs, traces) and observability (understanding system behavior).">
<ellipse fill="none" stroke="black" cx="139.68" cy="-378" rx="98.44" ry="18"/>
<text text-anchor="middle" x="139.68" y="-372.95" font-family="Times,serif" font-size="14.00">basic_concepts_learned</text>
</a>
</g>
</g>
<!-- basic_concepts_learned&#45;&gt;research_done -->
<g id="edge7" class="edge">
<title>basic_concepts_learned&#45;&gt;research_done</title>
<path fill="none" stroke="black" d="M161.47,-360.05C173.02,-351.07 187.39,-339.9 199.95,-330.12"/>
<polygon fill="black" stroke="black" points="201.78,-333.14 207.52,-324.24 197.48,-327.61 201.78,-333.14"/>
</g>
<!-- scope_defined -->
<g id="node8" class="node">
<title>scope_defined</title>
<g id="a_node8"><a xlink:title="We have explicitly defined the expected usage, limitations, and what constitutes a &#39;small&#39; product team.">
<ellipse fill="none" stroke="black" cx="320.68" cy="-378" rx="64.15" ry="18"/>
<text text-anchor="middle" x="320.68" y="-372.95" font-family="Times,serif" font-size="14.00">scope_defined</text>
</a>
</g>
</g>
<!-- scope_defined&#45;&gt;research_done -->
<g id="edge6" class="edge">
<title>scope_defined&#45;&gt;research_done</title>
<path fill="none" stroke="black" d="M299.58,-360.76C287.83,-351.73 273.01,-340.33 260.04,-330.35"/>
<polygon fill="black" stroke="black" points="262.25,-327.64 252.19,-324.31 257.98,-333.18 262.25,-327.64"/>
</g>
<!-- current_level_assessed -->
<g id="node9" class="node">
<title>current_level_assessed</title>
<g id="a_node9"><a xlink:title="@valentyinboyanov&#39;s current level at infra is assessed using the &#39;knowledge ladder&#39; framework.">
<ellipse fill="none" stroke="black" cx="320.68" cy="-450" rx="95.37" ry="18"/>
<text text-anchor="middle" x="320.68" y="-444.95" font-family="Times,serif" font-size="14.00">current_level_assessed</text>
</a>
</g>
</g>
<!-- current_level_assessed&#45;&gt;scope_defined -->
<g id="edge8" class="edge">
<title>current_level_assessed&#45;&gt;scope_defined</title>
<path fill="none" stroke="black" d="M320.68,-431.7C320.68,-424.41 320.68,-415.73 320.68,-407.54"/>
<polygon fill="black" stroke="black" points="324.18,-407.62 320.68,-397.62 317.18,-407.62 324.18,-407.62"/>
</g>
</g>
</svg>
